<svg id="b04717fd-4857-4494-b5c4-d12db4bc3fc8" data-name="Layer 1" xmlns="http://www.w3.org/2000/svg" viewBox="0 0 11.2 12"><title>clipboard</title><path d="M8.8,9.6H9.6v1.6a0.81,0.81,0,0,1-.8.8h-8A0.81,0.81,0,0,1,0,11.2V2.4A0.81,0.81,0,0,1,.8,1.6H3.2a1.6,1.6,0,1,1,3.2,0H8.8a0.81,0.81,0,0,1,.8.8v4H8.8V4h-8v7.2h8V9.6ZM1.6,3.2H8a0.81,0.81,0,0,0-.8-0.8H6.4a0.81,0.81,0,0,1-.8-0.8A0.81,0.81,0,0,0,5.36,1,0.82,0.82,0,0,0,4.24,1,0.81,0.81,0,0,0,4,1.6a0.81,0.81,0,0,1-.8.8H2.4A0.81,0.81,0,0,0,1.6,3.2Zm4,1.6h-4V5.6h4V4.8Zm-2,1.6h-2V7.2h2V6.4Zm-2,2.4h2V8h-2V8.8Zm0,0.8H4.8v0.8H1.6V9.6ZM7.2,7.2V5.6L4.8,8l2.4,2.4V8.8h4V7.2h-4Z" style="fill:#231f20"/></svg>