<?xml version="1.0" encoding="utf-8"?><svg xmlns="http://www.w3.org/2000/svg" xmlns:xlink="http://www.w3.org/1999/xlink"><symbol viewBox="0 0 11.2 12" id="clipboard"><title>clipboard</title><path d="M8.8 9.6h.8v1.6a.81.81 0 0 1-.8.8h-8a.81.81 0 0 1-.8-.8V2.4a.81.81 0 0 1 .8-.8h2.4a1.6 1.6 0 1 1 3.2 0h2.4a.81.81 0 0 1 .8.8v4h-.8V4h-8v7.2h8V9.6zM1.6 3.2H8a.81.81 0 0 0-.8-.8h-.8a.81.81 0 0 1-.8-.8.81.81 0 0 0-.24-.6.82.82 0 0 0-1.12 0 .81.81 0 0 0-.24.6.81.81 0 0 1-.8.8h-.8a.81.81 0 0 0-.8.8zm4 1.6h-4v.8h4v-.8zm-2 1.6h-2v.8h2v-.8zm-2 2.4h2V8h-2v.8zm0 .8h3.2v.8H1.6v-.8zm5.6-2.4V5.6L4.8 8l2.4 2.4V8.8h4V7.2h-4z"/></symbol><symbol viewBox="0 0 25 25" id="grow"><path d="M11 1.23c.84-1.65 2.22-1.65 3.07 0L24.67 22c.84 1.65 0 3-1.89 3H2.22C.33 25-.52 23.65.33 22z" fill-rule="evenodd"/></symbol><symbol viewBox="0 0 12 12" id="shrink"><path d="M6.74 11.41c-.4.79-1.07.79-1.47 0l-5.11-10A.92.92 0 0 1 1.07 0h9.87a.92.92 0 0 1 .91 1.44z" fill-rule="evenodd"/></symbol><symbol viewBox="0 0 0 0" id="symbol--sprite"/></svg>