<?xml version="1.0" encoding="utf-8"?><svg xmlns="http://www.w3.org/2000/svg" xmlns:xlink="http://www.w3.org/1999/xlink"><symbol viewBox="0 0 11.2 12" id="clipboard"><title>clipboard</title><path d="M8.8 9.6h.8v1.6a.81.81 0 0 1-.8.8h-8a.81.81 0 0 1-.8-.8V2.4a.81.81 0 0 1 .8-.8h2.4a1.6 1.6 0 1 1 3.2 0h2.4a.81.81 0 0 1 .8.8v4h-.8V4h-8v7.2h8V9.6zM1.6 3.2H8a.81.81 0 0 0-.8-.8h-.8a.81.81 0 0 1-.8-.8.81.81 0 0 0-.24-.6.82.82 0 0 0-1.12 0 .81.81 0 0 0-.24.6.81.81 0 0 1-.8.8h-.8a.81.81 0 0 0-.8.8zm4 1.6h-4v.8h4v-.8zm-2 1.6h-2v.8h2v-.8zm-2 2.4h2V8h-2v.8zm0 .8h3.2v.8H1.6v-.8zm5.6-2.4V5.6L4.8 8l2.4 2.4V8.8h4V7.2h-4z"/></symbol><symbol viewBox="0 0 0 0" id="symbol--sprite"/></svg>